<?xml version="1.0" encoding="UTF-8"?>
<svg id="Layer_2" data-name="Layer 2" xmlns="http://www.w3.org/2000/svg" viewBox="0 0 923.42 170.9">
  <defs>
    <style>
      .cls-1 {
        fill: #aec90b;
      }

      .cls-2 {
        fill: #0071bc;
      }
    </style>
  </defs>
  <g id="Layer_1-2" data-name="Layer 1">
    <g id="Layer_2-2" data-name="Layer 2">
      <g id="uuid-9048429c-b31e-4118-bdb3-3a9713fd68d0" data-name="Layer 1-2">
        <path class="cls-2" d="M274,170.9h-34.19V0h205.09v170.9h-34.18V34.18h-136.72v136.72Z"/>
        <path class="cls-2" d="M684.16,0l-85.45,170.9h-34.18L479.08,0h37.44l65.1,130.19L646.71,0h37.45Z"/>
        <path class="cls-2" d="M923.42,170.9h-205.08V0h205.08v170.9ZM889.24,136.72V34.18h-136.72v102.54h136.72Z"/>
        <polygon class="cls-2" points="205.63 34.18 205.63 0 40.93 0 40.93 0 0 0 0 170.9 .55 170.9 40.93 170.9 205.63 170.9 205.63 136.72 40.93 136.72 40.93 102.54 205.63 102.54 205.63 68.36 40.93 68.36 40.93 34.18 205.63 34.18"/>
        <polygon class="cls-1" points="534.09 0 629.45 0 581.6 95.81 534.09 0"/>
      </g>
    </g>
  </g>
</svg>